<svg width="108" height="30" viewBox="0 0 108 30" fill="none" xmlns="http://www.w3.org/2000/svg">
<path d="M29.52 4.08V1.32H49.52V4.08H41.08V29H38.04V4.08H29.52ZM48.4219 18.96C48.4219 15.3067 49.0752 12.6667 50.3819 11.04C51.6885 9.41333 53.8885 8.6 56.9819 8.6C60.1019 8.6 62.3019 9.41333 63.5819 11.04C64.8885 12.6667 65.5419 15.3067 65.5419 18.96C65.5419 22.6133 64.9285 25.2667 63.7019 26.92C62.4752 28.5733 60.2352 29.4 56.9819 29.4C53.7285 29.4 51.4885 28.5733 50.2619 26.92C49.0352 25.2667 48.4219 22.6133 48.4219 18.96ZM51.5019 18.92C51.5019 21.8267 51.8485 23.8667 52.5419 25.04C53.2619 26.2133 54.7419 26.8 56.9819 26.8C59.2485 26.8 60.7285 26.2267 61.4219 25.08C62.1152 23.9067 62.4619 21.8533 62.4619 18.92C62.4619 15.9867 62.0752 13.9733 61.3019 12.88C60.5285 11.76 59.0885 11.2 56.9819 11.2C54.9019 11.2 53.4619 11.76 52.6619 12.88C51.8885 13.9733 51.5019 15.9867 51.5019 18.92ZM85.7947 0.279999V29H82.8347V27.64C80.7814 28.8133 78.7547 29.4 76.7547 29.4C75.688 29.4 74.7547 29.2667 73.9547 29C73.1547 28.7333 72.408 28.2533 71.7147 27.56C70.2747 26.12 69.5547 23.4667 69.5547 19.6C69.5547 15.7067 70.1947 12.9067 71.4747 11.2C72.7814 9.46667 74.928 8.6 77.9147 8.6C79.4614 8.6 81.1014 8.77333 82.8347 9.12V0.279999H85.7947ZM74.0347 25.4C74.4614 25.9067 74.9147 26.2533 75.3947 26.44C75.8747 26.6267 76.488 26.72 77.2347 26.72C78.008 26.72 78.8614 26.6 79.7947 26.36C80.7547 26.0933 81.5014 25.84 82.0347 25.6L82.8347 25.24V11.68C81.128 11.36 79.5414 11.2 78.0747 11.2C76.048 11.2 74.6347 11.8533 73.8347 13.16C73.0347 14.44 72.6347 16.44 72.6347 19.16C72.6347 22.2533 73.1014 24.3333 74.0347 25.4ZM90.7266 18.96C90.7266 15.3067 91.3799 12.6667 92.6866 11.04C93.9932 9.41333 96.1932 8.6 99.2866 8.6C102.407 8.6 104.607 9.41333 105.887 11.04C107.193 12.6667 107.847 15.3067 107.847 18.96C107.847 22.6133 107.233 25.2667 106.007 26.92C104.78 28.5733 102.54 29.4 99.2866 29.4C96.0332 29.4 93.7932 28.5733 92.5666 26.92C91.3399 25.2667 90.7266 22.6133 90.7266 18.96ZM93.8066 18.92C93.8066 21.8267 94.1532 23.8667 94.8466 25.04C95.5666 26.2133 97.0466 26.8 99.2866 26.8C101.553 26.8 103.033 26.2267 103.727 25.08C104.42 23.9067 104.767 21.8533 104.767 18.92C104.767 15.9867 104.38 13.9733 103.607 12.88C102.833 11.76 101.393 11.2 99.2866 11.2C97.2066 11.2 95.7666 11.76 94.9666 12.88C94.1932 13.9733 93.8066 15.9867 93.8066 18.92Z" fill="#C7C7C7"/>
<path fill-rule="evenodd" clip-rule="evenodd" d="M20.8363 7.46446L10.8412 20.2342L7.56838 16.4905C7.46407 16.3699 7.33695 16.271 7.19432 16.1996C7.05169 16.1283 6.89637 16.0858 6.73729 16.0747C6.5782 16.0635 6.41848 16.084 6.26731 16.1348C6.11614 16.1856 5.9765 16.2658 5.85641 16.3708C5.73633 16.4757 5.63816 16.6034 5.56756 16.7465C5.49696 16.8895 5.45531 17.0451 5.44501 17.2043C5.43471 17.3635 5.45596 17.5231 5.50754 17.6741C5.55912 17.825 5.64002 17.9643 5.74558 18.0839L9.50133 22.3796C9.67723 22.5807 9.89533 22.7405 10.1401 22.8476C10.3848 22.9547 10.6502 23.0065 10.9172 22.9992C11.1843 22.9919 11.4464 22.9258 11.685 22.8055C11.9235 22.6852 12.1326 22.5137 12.2973 22.3033L22.7427 8.9573C22.8407 8.83209 22.913 8.6888 22.9557 8.53561C22.9983 8.38242 23.0103 8.22233 22.9911 8.06448C22.9719 7.90663 22.9218 7.75412 22.8436 7.61564C22.7655 7.47717 22.6609 7.35544 22.5357 7.25742C22.4105 7.1594 22.2673 7.087 22.1141 7.04436C21.961 7.00171 21.801 6.98966 21.6432 7.00888C21.4854 7.02811 21.3329 7.07823 21.1945 7.1564C21.056 7.23457 20.9343 7.33925 20.8363 7.46446ZM20.5761 17.8926C20.2551 17.8926 19.9473 18.0201 19.7203 18.2472C19.4933 18.4743 19.3658 18.7822 19.3658 19.1033V26.461C19.3658 27.0167 19.3403 27.1511 19.2665 27.2891C19.2245 27.3708 19.1581 27.4372 19.0765 27.4792C18.9397 27.5519 18.8042 27.5785 18.2486 27.5785H3.53788C2.98233 27.5785 2.84798 27.5519 2.71 27.4792C2.62836 27.4373 2.56191 27.3708 2.51997 27.2891C2.44735 27.1523 2.42072 27.0167 2.42072 26.461V11.2335C2.42072 11.0729 2.48448 10.919 2.59797 10.8054C2.71147 10.6919 2.8654 10.6281 3.0259 10.6281L13.314 10.633C13.635 10.633 13.9428 10.5054 14.1698 10.2784C14.3968 10.0513 14.5243 9.74334 14.5243 9.42223C14.5243 9.10112 14.3968 8.79316 14.1698 8.5661C13.9428 8.33905 13.635 8.21149 13.314 8.21149L3.0259 8.20664C2.22338 8.20664 1.45373 8.52554 0.886266 9.09319C0.318799 9.66083 0 10.4307 0 11.2335V26.461C0 27.3812 0.0992495 27.8957 0.386105 28.4309C0.657225 28.9382 1.06149 29.3426 1.56863 29.6138C2.10361 29.9007 2.6168 30 3.53788 30H18.2486C19.1685 30 19.6829 29.9007 20.2179 29.6138C20.7262 29.3426 21.1305 28.9382 21.4016 28.4309C21.6872 27.8957 21.7865 27.3824 21.7865 26.461V19.1033C21.7865 18.7822 21.659 18.4743 21.432 18.2472C21.205 18.0201 20.8971 17.8926 20.5761 17.8926Z" fill="#C7C7C7"/>
</svg>
